<svg width="228" height="183" viewBox="0 0 228 183" fill="none" xmlns="http://www.w3.org/2000/svg">
<g clip-path="url(#clip0_5398_74567)">
<path d="M173.192 44.4553C180.592 38.3092 187.688 31.7987 194.461 24.949C199.616 29.798 204.863 34.7318 209.398 40.1319C202.261 47.7445 194.572 55.2469 185.484 60.3418C181.279 55.3741 176.023 49.9995 173.192 44.4553Z" fill="#6C0954"/>
<path d="M173.039 44.6672C176.006 50.1181 178.405 56.0946 181.728 61.2573C181.89 60.825 182.051 60.4011 182.22 59.9687C182.61 60.2231 182.958 60.5367 183.254 60.8928L183.424 60.1637C184.06 60.4604 184.806 60.5113 185.475 60.2909C181.262 55.2469 177.49 49.2449 173.039 44.6587V44.6672Z" fill="#4F0443"/>
<path d="M173.141 44.3957C175.879 46.6507 178.448 49.2023 181.271 51.3132C189.502 46.9813 196.123 39.5212 202.108 32.4172C199.827 29.6028 197.216 27.0426 194.385 24.8555C187.476 31.7136 180.652 38.3768 173.132 44.3872L173.141 44.3957Z" fill="#A31866"/>
<path d="M180.448 38.6482C175.345 35.8083 180.728 32.1546 183.441 29.9165C184.865 28.7806 186.315 31.4933 187.383 32.2732C187.747 31.9681 188.061 31.6035 188.324 31.2051C187.111 30.4591 185.001 27.2716 183.695 27.7209C180.635 29.2129 177.481 32.2309 176.608 35.6387C176.811 37.4359 178.643 38.5889 179.812 39.8181C180.109 39.5383 180.38 39.2246 180.601 38.8856C180.482 38.7075 180.321 38.5634 180.44 38.6567L180.448 38.6482Z" fill="#4F0443"/>
<path d="M190.036 42.7003C190.621 43.5989 191.214 44.8196 192.215 45.2435C193.563 44.5229 195.021 43.4124 195.818 42.0729C196.03 41.2252 194.453 39.9197 193.834 39.4026C192.851 39.6739 190.011 41.8017 190.028 42.7003H190.036Z" fill="#EE6186"/>
<path d="M193.368 40.4199C191.935 41.293 189.833 43.0139 192.478 43.8871C193.317 43.353 194.232 42.6494 194.885 41.9034C194.775 41.31 194.046 40.2334 193.368 40.4199Z" fill="#A31866"/>
<path d="M227.655 74.1097L204.456 67.3303L197.834 89.9919L221.032 96.7712L227.655 74.1097Z" fill="#3ABCB4"/>
<path d="M204.142 88.588C203.973 88.5456 203.897 88.3337 203.998 88.1896L209.22 81.0686C209.339 80.8991 209.636 80.9499 209.687 81.1534L210.975 85.7989L214.069 80.8058C214.112 80.738 214.18 80.6956 214.256 80.6871C214.332 80.5176 216.485 82.5182 216.562 82.5437L220.792 75.8211C220.868 75.7025 221.029 75.6685 221.148 75.7448C221.275 75.8211 221.309 75.9737 221.233 76.1009L216.841 83.0777C216.799 83.1371 216.731 83.1879 216.655 83.1964C216.579 83.3744 214.434 81.3653 214.349 81.3399C210.212 87.2994 211.365 89.3509 209.314 81.8146L204.414 88.5032C204.346 88.5965 204.236 88.6304 204.125 88.5965L204.142 88.588Z" fill="#052F47"/>
<path d="M221.182 77.7541C221.08 77.7287 221.004 77.6354 220.995 77.5252L220.868 76.1519L219.342 76.7029C219.207 76.7538 219.054 76.686 219.003 76.5503C218.952 76.4147 219.02 76.2706 219.156 76.2197L221.004 75.5585C221.156 75.4991 221.343 75.6093 221.36 75.7789L221.521 77.4913C221.538 77.6693 221.36 77.805 221.19 77.7541H221.182Z" fill="#005B59"/>
<path d="M56.1453 42.7766L53.992 37.8598L51.6523 38.8855C51.1182 38.2158 50.4994 37.6309 49.8296 37.1307L50.7622 34.7571L45.7605 32.7988L44.828 35.1725C43.9973 35.0877 43.1495 35.0962 42.3018 35.2233L41.276 32.8836L36.3592 35.0368L37.3849 37.3766C36.7152 37.9107 36.1303 38.5295 35.6301 39.1992L33.2565 38.2667L31.2982 43.2683L33.6719 44.2008C33.5871 45.0316 33.5956 45.8793 33.7227 46.7271L31.383 47.7528L33.5362 52.6697L35.876 51.6439C36.41 52.3136 37.0289 52.8986 37.6986 53.3987L36.7661 55.7724L41.7677 57.7306L42.7002 55.357C43.531 55.4418 44.3787 55.4333 45.2265 55.3061L46.2522 57.6459L51.1691 55.4926L50.1433 53.1529C50.813 52.6188 51.398 52 51.8981 51.3303L54.2718 52.2628L56.23 47.2611L53.8564 46.3286C53.9412 45.4979 53.9327 44.6501 53.8055 43.8024L56.1453 42.7766ZM46.0064 50.3808C43.1834 51.6185 39.8857 50.3299 38.6481 47.4985C37.4104 44.6756 38.6989 41.3779 41.5304 40.1402C44.3533 38.9025 47.651 40.1911 48.8887 43.0225C50.1264 45.8454 48.8378 49.1431 46.0064 50.3808Z" fill="#616161"/>
<path d="M24.8301 98.0233C-12.9194 99.2271 16.8529 50.0502 28.9501 83.6628C29.2637 86.7824 30.1199 92.2842 28.2041 94.7341C27.9752 95.2004 26.5425 98.0657 24.8301 98.0233Z" fill="#FFBF1D"/>
<path d="M24.9997 102.372C23.9146 101.304 22.9227 100.143 22.0496 98.8964C24.6267 96.616 26.9325 93.81 29.9759 92.1484C31.1373 93.6998 32.4936 95.8022 33.655 97.3535C32.2308 98.4895 27.2462 102.711 25.8474 103.355C25.3811 102.923 25.0251 102.389 25.0081 102.372H24.9997Z" fill="#B0B0B0"/>
<path d="M24.2452 99.9137C24.9064 99.5153 34.2654 92.1061 30.1878 93.2421C29.9419 94.3357 20.583 100.516 24.2452 99.9137Z" fill="#616161"/>
<path d="M25.9916 101.406C26.8223 100.787 34.4858 94.8612 31.7307 94.6323C29.6707 96.6923 27.7379 98.8964 25.3134 100.533C24.72 100.914 25.4066 101.779 25.9916 101.397V101.406Z" fill="#616161"/>
<path d="M11.8258 89.9445C5.53563 81.6367 18.0482 71.8285 24.6181 79.9158C30.9083 88.2236 18.3957 98.0319 11.8258 89.9445Z" fill="#FFFDF2"/>
<path d="M23.9145 96.2684C12.343 91.4533 16.2001 83.4592 19.0401 88.5625C18.9892 88.9186 18.6247 88.7406 18.4466 88.588C16.2171 86.4856 19.5233 82.6284 21.7528 85.1123C22.6344 85.8244 22.1682 87.5537 21.2696 86.0448C20.4303 84.8495 21.3205 82.4758 22.9735 83.3659C26.1525 86.2313 25.2031 91.2075 25.9915 95.0307C26.1271 95.7259 27.2122 95.5818 27.0766 94.8866C26.8222 93.5981 26.7968 92.2587 26.6696 90.9531C26.2966 87.8759 26.1186 83.171 22.5921 82.0943C20.6507 81.84 19.5656 83.8831 19.9556 85.5701C20.2608 88.1811 23.923 88.6049 23.2363 85.5022C21.4391 80.8906 14.954 84.1119 16.997 88.4015C17.8702 90.7327 21.1509 89.9783 19.8284 87.4774C16.0136 82.9929 13.0296 88.9016 16.4121 92.2163C16.6494 93.3268 25.6863 99.7017 23.9315 96.26L23.9145 96.2684Z" fill="#616161"/>
<path d="M6.67162 69.8023C7.71433 70.65 8.22297 73.3203 9.7065 73.083C10.3423 72.159 7.99408 70.1329 7.52783 69.1326C7.087 68.573 6.22232 69.2512 6.67162 69.8023Z" fill="#FFBF1D"/>
<path d="M14.4453 69.3785C14.4029 69.2598 14.3097 68.9547 14.3181 68.9631C13.8858 68.2426 14.2588 63.7835 12.8516 65.8011C12.9702 66.9201 12.682 70.0737 14.1571 70.0991C14.4368 69.9635 14.547 69.6752 14.4453 69.387V69.3785Z" fill="#FFBF1D"/>
<path d="M0.491667 78.4747C1.70392 78.2458 4.86597 79.8988 5.23049 78.3814C5.17115 78.0593 4.91683 77.9067 4.61165 77.9067C4.03519 78.0338 -1.67853 76.4655 0.491667 78.4747Z" fill="#FFBF1D"/>
<path d="M149.591 30.2809C144.411 29.9842 137.078 25.9489 134.179 22.1681C133.628 21.5407 133.56 20.6252 134.009 19.9216C135.408 17.7429 136.815 15.5558 138.214 13.3771C138.74 12.5633 139.799 12.2835 140.656 12.7328L153.931 19.7351C154.813 20.2013 155.169 21.2695 154.754 22.1681L151.507 29.2042C151.168 29.9418 150.388 30.3741 149.582 30.2809H149.591Z" fill="#3B3B4F"/>
<path d="M149.591 30.281C147.955 30.086 145.793 29.6622 143.419 28.7127L148.845 17.0564L153.931 19.7437C154.813 20.21 155.169 21.2781 154.754 22.1767L151.507 29.2129C151.168 29.9504 150.388 30.3828 149.582 30.2895L149.591 30.281Z" fill="#46465E"/>
<path d="M161.535 23.1939C156.644 24.3299 149.481 25.1776 145.225 23.9569C140.893 20.549 135.239 14.1825 132.153 8.76549C131.17 6.48509 134.298 6.59529 135.824 6.31554C139.825 5.67126 146.208 6.34945 149.286 7.40064C151.973 9.07915 154.999 12.0716 157.483 14.8013C159.247 16.7766 161.035 19.1672 162.324 21.1848C162.815 21.9477 162.409 22.982 161.527 23.1939H161.535Z" fill="#46465E"/>
<path d="M161.535 23.1769C156.644 24.3129 149.481 25.1606 145.225 23.9399C141.097 20.71 135.29 14.2757 132.153 8.74851C131.848 8.23987 131.933 7.6295 132.272 7.21411C132.178 7.5532 132.212 7.92621 132.407 8.2653C135.544 13.7925 141.342 20.2183 145.479 23.4567C147.734 24.5672 159.925 23.9483 162.493 22.2529C162.366 22.6937 162.027 23.0582 161.535 23.1769Z" fill="#2F2F3F"/>
<path d="M134.154 15.1065L133.713 14.8268C134.264 14.1147 134.942 12.326 136.036 12.326C139.876 11.953 143.784 12.2581 147.531 13.2076L147.404 13.7162C143.724 12.7753 139.876 12.4786 136.086 12.8431C135.764 12.877 135.476 13.0465 135.298 13.3263L134.154 15.1065Z" fill="#E2984D"/>
<path d="M132.127 17.7941C131.526 17.2176 133.789 14.7592 133.628 14.9372C133.857 14.6914 134.238 15.0559 134.009 15.2933C134.001 15.3018 132.831 16.5394 132.5 17.633C132.458 17.7856 132.272 17.8619 132.127 17.7856V17.7941Z" fill="#E2984D"/>
<path d="M133.399 18.0737C132.84 17.1327 133.738 14.8354 133.679 14.8862C133.781 14.5641 134.289 14.7336 134.171 15.0558C134.171 15.0727 133.62 16.6834 133.781 17.8109C133.815 18.0144 133.577 18.1754 133.399 18.0737Z" fill="#E2984D"/>
<path d="M132.687 18.1753C132.145 17.4463 133.628 14.8692 133.501 15.0641C133.662 14.7674 134.128 15.0302 133.959 15.3185C133.959 15.3354 133.119 16.8189 133.077 17.9549C133.077 18.1414 132.857 18.2601 132.696 18.1753H132.687Z" fill="#E2984D"/>
<path d="M131.568 17.4292C130.898 16.8782 133.679 14.8606 133.603 14.9369C133.882 14.7419 134.179 15.1827 133.891 15.3692C133.874 15.3777 132.475 16.3357 131.916 17.3275C131.848 17.4547 131.695 17.4971 131.568 17.4292Z" fill="#E2984D"/>
<path d="M149.76 13.7927C148.904 15.166 146.564 14.2589 145.963 13.0467C145.742 12.6228 145.674 12.1735 145.886 11.7581C146.827 9.97786 150.693 12.0209 149.752 13.8011L149.76 13.7927Z" fill="#3B3B4F"/>
<path d="M134.433 15.505C134.052 16.2255 132.831 15.5813 133.204 14.8607C133.586 14.1401 134.806 14.7844 134.433 15.505Z" fill="#D18A4A"/>
<path d="M149.76 13.7928C149.676 13.92 149.328 14.666 149.226 14.7677C148.752 15.3696 147.666 15.4628 146.683 14.9372C145.7 14.4116 145.166 13.4791 145.386 12.7416C145.403 12.606 145.827 11.8939 145.886 11.7498C145.072 13.6487 148.65 15.5306 149.752 13.7928H149.76Z" fill="#2F2F3F"/>
<path d="M145.386 12.7329H145.369L145.462 12.5464C145.428 12.6057 145.403 12.6735 145.386 12.7329Z" fill="#46465E"/>
<path d="M149.337 14.5894L149.243 14.7684H149.226C149.269 14.7087 149.303 14.649 149.337 14.5894Z" fill="#46465E"/>
<path d="M89.0881 68.9122C89.0881 68.9122 87.3757 72.9983 86.0787 80.8483C84.7817 88.6983 88.2319 95.2428 88.2319 95.2428C88.2319 95.2428 104.831 93.7762 113.469 94.6833C122.107 95.5904 128.55 92.0214 128.55 92.0214L127.194 83.595L122.735 67.0642L98.32 61.9778L89.6985 66.6912L89.0797 68.9122H89.0881Z" fill="#242D3A"/>
<path d="M111.205 88.7915H98.3284V99.634H111.205V88.7915Z" fill="#F79B67"/>
<path d="M111.205 90.8684V92.691C109.756 93.1742 107.179 93.4879 104.246 93.4879C101.923 93.4879 99.8119 93.2929 98.3284 92.9708V90.5887C99.8204 90.2665 101.923 90.0715 104.246 90.0715C107.179 90.0715 109.747 90.3937 111.205 90.8684Z" fill="#E08051"/>
<path d="M90.5971 78.1272C91.9268 78.1272 93.0047 76.9013 93.0047 75.3891C93.0047 73.8768 91.9268 72.6509 90.5971 72.6509C89.2675 72.6509 88.1896 73.8768 88.1896 75.3891C88.1896 76.9013 89.2675 78.1272 90.5971 78.1272Z" fill="#E08051"/>
<path d="M91.4872 64.5212C91.4872 64.5212 90.9447 73.5749 89.8257 79.0089C88.7067 84.4429 92.4791 91.3688 99.6255 92.5218C112.672 94.6241 118.564 87.3082 118.75 85.138C118.945 82.9678 115.665 67.3441 112.825 64.6144C109.985 61.8847 91.4788 64.5127 91.4788 64.5127L91.4872 64.5212Z" fill="#F79B67"/>
<path d="M128.559 92.0215C123.158 92.3437 110.824 95.5735 113.757 91.3009C114.427 90.3261 116.792 89.0968 117.157 87.9439C119.996 78.9834 112.579 65.2077 110.375 64.8602C110.375 64.8602 99.9222 70.5654 89.6476 67.8527C89.6476 67.8527 88.6812 65.8351 94.5221 60.6215C98.3284 57.2391 108.467 56.0353 115.605 58.6632C122.743 61.2912 123.752 67.5051 123.998 71.7268C124.269 76.33 127.804 79.2971 128.779 83.1542C129.483 85.9178 129.576 92.4369 128.55 92.013L128.559 92.0215Z" fill="#242D3A"/>
<path d="M116.368 78.1272C117.698 78.1272 118.776 76.9013 118.776 75.3891C118.776 73.8768 117.698 72.6509 116.368 72.6509C115.038 72.6509 113.961 73.8768 113.961 75.3891C113.961 76.9013 115.038 78.1272 116.368 78.1272Z" fill="#F79B67"/>
<path d="M99.1847 73.9477C99.8214 73.9477 100.338 73.4315 100.338 72.7948C100.338 72.158 99.8214 71.6418 99.1847 71.6418C98.5479 71.6418 98.0317 72.158 98.0317 72.7948C98.0317 73.4315 98.5479 73.9477 99.1847 73.9477Z" fill="#242D3A"/>
<path d="M105.415 74.287C106.052 74.287 106.568 73.7708 106.568 73.1341C106.568 72.4974 106.052 71.9812 105.415 71.9812C104.779 71.9812 104.262 72.4974 104.262 73.1341C104.262 73.7708 104.779 74.287 105.415 74.287Z" fill="#242D3A"/>
<path d="M93.1402 79.6867C94.5448 79.6867 95.6834 78.5481 95.6834 77.1435C95.6834 75.739 94.5448 74.6003 93.1402 74.6003C91.7357 74.6003 90.597 75.739 90.597 77.1435C90.597 78.5481 91.7357 79.6867 93.1402 79.6867Z" fill="#F48062"/>
<path d="M111.205 80.0261C112.61 80.0261 113.749 78.8875 113.749 77.4829C113.749 76.0783 112.61 74.9397 111.205 74.9397C109.801 74.9397 108.662 76.0783 108.662 77.4829C108.662 78.8875 109.801 80.0261 111.205 80.0261Z" fill="#F48062"/>
<path d="M105.009 82.052C105.203 82.8489 103.762 84.7478 102.075 84.6715C101.253 84.6292 99.5322 83.8577 99.6 81.874C99.6 81.874 101.312 81.8995 102.135 81.9164C103.16 81.9418 105.009 82.052 105.009 82.052Z" fill="#D1652F"/>
<path d="M97.2772 71.5232C97.2772 71.5232 97.2348 71.5232 97.2178 71.5147C97.1331 71.4808 97.0992 71.3876 97.1246 71.3028C97.1415 71.2689 97.4467 70.5144 98.1334 70.1753C99.015 69.7345 99.956 70.1584 99.9984 70.1753C100.075 70.2092 100.117 70.3025 100.075 70.3873C100.041 70.472 99.9391 70.4975 99.8628 70.4636C99.8628 70.4636 99.015 70.0906 98.269 70.4636C97.6926 70.7518 97.4213 71.413 97.4128 71.4215C97.3874 71.4808 97.3281 71.5232 97.2602 71.5232H97.2772Z" fill="#242D3A"/>
<path d="M107.348 71.4809C107.28 71.4809 107.221 71.4385 107.196 71.3792C107.196 71.3792 106.857 70.5145 106.068 70.2517C105.458 70.0482 104.788 70.3195 104.788 70.328C104.703 70.3619 104.61 70.328 104.576 70.2432C104.542 70.1584 104.576 70.0652 104.661 70.0313C104.695 70.0143 105.441 69.7006 106.17 69.9465C107.102 70.2602 107.475 71.2266 107.492 71.2605C107.526 71.3452 107.484 71.4385 107.399 71.4639C107.382 71.4639 107.365 71.4724 107.34 71.4724L107.348 71.4809Z" fill="#242D3A"/>
<path d="M141.359 160.815C140.028 161.917 138.731 162.451 137.409 162.451C135.434 162.451 133.323 161.213 131.017 158.662C127.278 154.542 123.04 146.971 118.089 135.68C112.214 122.268 111.74 106.857 113.113 103.949C113.198 103.771 113.316 103.593 113.469 103.415C114.071 102.703 115.088 102.033 115.52 101.864C116.046 101.66 116.606 101.558 117.19 101.558C118.377 101.558 119.649 101.965 120.963 102.728C121.616 103.101 122.285 103.567 122.955 104.118C127.278 107.645 131.907 114.596 135.646 123.549C140.885 136.095 146.734 156.381 141.359 160.832V160.815Z" fill="#80C5FF"/>
<path d="M118.784 135.086C130.763 162.426 136.646 163.392 140.944 159.831C145.242 156.271 141.088 138.816 134.942 124.1C128.796 109.383 120.547 101.041 115.732 102.949C115.241 103.144 114.028 104.051 113.783 104.568C112.613 107.06 112.977 121.853 118.776 135.086H118.784Z" fill="#AADCFF"/>
<path d="M149.54 113.537L149.854 110.214C150.956 108.993 155.694 108.976 156.042 107.272C156.424 105.39 153.482 106.704 152.77 107.137C152.21 107.476 156.466 106.619 156.466 104.924C156.466 103.178 152.405 105.382 152.405 105.382C152.405 105.382 156.517 104.203 156.432 103.017C156.288 101.109 152.38 103.178 152.38 103.178C152.38 103.178 155.652 102.423 155.279 100.787C154.94 99.312 149.862 101.211 149.862 101.211C149.862 101.211 151.312 99.4815 151.083 98.176C150.99 97.625 150.6 97.4131 150.6 97.4131C150.6 97.4131 147.802 98.8627 147.022 99.4307C143.496 101.974 144.411 113.537 144.411 113.537H149.548H149.54Z" fill="#F79B67"/>
<path d="M139.808 162.349C141.419 161.646 143.173 159.798 145.03 156.864C154.864 141.283 153.092 114.41 153.007 113.274L152.965 112.621L142.868 108.544L142.656 109.298C141.071 115.037 137.299 128.669 135.764 134.018C135.205 135.976 135.849 138.231 135.713 138.613C135.086 140.342 133.797 152.728 134.916 157.475C134.916 157.475 134.255 158.814 134.764 159.908C135.798 162.129 137.773 163.231 139.808 162.341V162.349Z" fill="#80C5FF"/>
<path d="M152.397 113.376L143.233 109.671C143.233 109.671 136.96 132.382 136.281 134.247C135.603 136.112 131.28 151.405 132.289 155.695C133.297 159.984 137.85 166.249 144.589 156.195C154.626 141.215 152.397 113.376 152.397 113.376Z" fill="#AADCFF"/>
<path d="M131.882 166.427C131.594 176.133 131.068 183 131.068 183H79.6699C79.6699 183 81.6451 136.171 83.188 127.262C85.7821 112.248 87.486 104.525 93.7592 99.6594C95.4971 98.3115 97.1586 97.4723 98.3285 96.9551C99.2356 97.4638 101.736 98.7015 105.085 98.4048C108.23 98.125 110.366 96.65 111.206 96.0142C111.536 96.1074 112.079 96.2685 112.723 96.5143C112.723 96.5143 117.564 98.3793 122.04 103.457C122.692 104.203 123.345 105.009 123.989 105.873C124.312 106.306 124.625 106.746 124.947 107.213C132.077 117.597 132.45 147.429 131.882 166.418V166.427Z" fill="#AADCFF"/>
<path d="M75.1768 171.005C73.8544 171.073 72.5488 170.53 71.1925 169.352C65.7246 164.604 71.1247 141.512 76.0839 127.143C81.2805 112.087 88.5032 101.796 94.0473 101.525C94.6323 101.499 95.2172 101.499 95.7258 101.796C100.88 104.814 87.7826 135.595 88.2065 136.553C89.6391 139.766 95.4461 135.205 93.8947 139.961C86.9094 161.417 80.348 170.759 75.1768 171.005Z" fill="#80C5FF"/>
<path d="M93.1828 139.325C81.8147 170.649 75.9568 172.03 71.5825 168.224C67.2422 164.452 70.9807 144.589 76.7961 127.745C82.6115 110.9 91.6145 98.9559 96.4635 100.863C96.9552 101.058 97.5062 103.237 97.7605 103.796C98.9897 106.543 98.693 124.159 93.1828 139.316V139.325Z" fill="#AADCFF"/>
<path d="M129.466 131.95L122.989 154.686C122.726 155.347 123.048 155.906 123.71 155.923L135.535 156.288C136.197 156.305 136.951 155.788 137.214 155.118L145.183 133.348C145.183 131.814 143.165 131.161 142.97 131.136L131.144 130.771C130.483 130.754 129.728 131.271 129.466 131.941V131.95Z" fill="#131820"/>
<path d="M130.864 133.272L124.388 156.008C124.125 156.669 124.447 157.229 125.1 157.246L136.926 157.61C137.587 157.627 138.341 157.11 138.604 156.441L145.081 133.704C145.344 133.035 145.021 132.484 144.369 132.467L132.543 132.102C131.882 132.085 131.127 132.602 130.864 133.272Z" fill="#1C53B5"/>
<path d="M134.077 134.417C134.052 134.968 133.577 135.4 133.018 135.366C132.467 135.341 132.034 134.866 132.068 134.306C132.094 133.755 132.568 133.323 133.128 133.357C133.687 133.391 134.111 133.857 134.077 134.417Z" fill="#1A2E35"/>
<path d="M116.673 159.721L126.931 158.111C128.711 157.271 135.603 158.221 136.358 156.797C137.18 155.237 132.712 155.779 131.61 156.008C130.754 156.186 137.061 156.305 137.307 154.83C137.553 153.304 131.331 154.398 131.331 154.398C131.331 154.398 137.485 154.211 137.528 153.151C137.595 151.456 131.602 152.465 131.602 152.465C131.602 152.465 136.476 152.473 136.163 150.964C135.883 149.608 128.211 150.227 128.211 150.227C128.211 150.227 130.559 149.006 130.415 147.819C130.356 147.319 129.822 147.056 129.822 147.056C129.822 147.056 125.541 147.751 124.32 148.09C118.827 149.591 116.673 152.354 116.673 152.354V159.704V159.721Z" fill="#F79B67"/>
<path d="M70.8873 169.241C72.1589 170.623 74.4987 171.64 77.8472 172.276C95.6157 175.642 118.75 161.705 119.725 161.112L120.285 160.772L119.852 148.311L119.098 148.429C113.376 149.337 99.7611 151.481 94.4034 152.27C92.4367 152.558 90.6988 154.253 90.3004 154.279C88.5201 154.398 77.0079 158.602 73.244 161.908C73.244 161.908 71.7859 161.815 71.0229 162.841C69.4716 164.926 69.2766 167.503 70.8788 169.241H70.8873Z" fill="#80C5FF"/>
<path d="M119.386 160.518L118.996 149.201C118.996 149.201 96.3363 152.787 94.4034 152.914C92.4706 153.041 77.915 155.067 74.5071 158.051C71.1077 161.035 66.157 169.046 78.2541 171.513C95.7344 175.074 119.386 160.518 119.386 160.518Z" fill="#AADCFF"/>
<path d="M130.152 126.516C130.152 126.516 130.152 126.567 130.152 126.592C130.152 126.779 130.144 126.982 130.127 127.169V127.236C130.11 127.347 130.101 127.465 130.084 127.576C130.068 127.686 130.051 127.804 130.025 127.923C129.974 128.16 129.915 128.389 129.839 128.601C129.762 128.83 129.669 129.059 129.559 129.288C129.457 129.508 129.347 129.695 129.237 129.864C129.101 130.068 128.965 130.246 128.813 130.407C128.728 130.492 128.643 130.577 128.559 130.644C128.516 130.678 128.474 130.712 128.431 130.746C128.474 130.755 128.508 130.763 128.55 130.771L128.652 130.797L128.72 130.814C128.83 130.839 128.932 130.865 129.033 130.907C129.22 130.966 129.398 131.034 129.559 131.119C129.737 131.212 129.915 131.314 130.093 131.441C130.254 131.56 130.415 131.679 130.559 131.814C130.864 132.094 131.144 132.408 131.398 132.781C131.593 133.06 131.78 133.374 131.983 133.764C131.983 133.73 131.983 133.705 131.983 133.671C131.941 133.323 131.949 132.959 131.992 132.577C132.043 132.187 132.128 131.797 132.263 131.416C132.399 131.026 132.568 130.644 132.78 130.297C132.975 129.966 133.196 129.669 133.441 129.407H133.416C133.365 129.39 133.323 129.381 133.272 129.364C133.018 129.305 132.797 129.246 132.602 129.169C132.382 129.084 132.178 128.983 132 128.864C131.831 128.754 131.67 128.627 131.509 128.483C131.356 128.338 131.203 128.194 131.076 128.042C130.797 127.728 130.568 127.381 130.373 127.016C130.288 126.846 130.212 126.677 130.144 126.516" fill="#FFFDF2"/>
<path d="M145.284 131.221L145.267 131.263C145.208 131.365 145.14 131.467 145.072 131.56L145.055 131.594C145.013 131.653 144.971 131.704 144.928 131.763C144.886 131.823 144.835 131.873 144.784 131.924C144.682 132.035 144.572 132.136 144.47 132.23C144.352 132.331 144.233 132.416 144.106 132.501C143.979 132.586 143.869 132.653 143.75 132.704C143.614 132.772 143.479 132.823 143.351 132.857C143.275 132.874 143.207 132.891 143.139 132.899C143.106 132.899 143.072 132.908 143.038 132.908C143.055 132.925 143.072 132.942 143.089 132.959L143.139 133.001L143.173 133.026C143.224 133.069 143.267 133.12 143.309 133.179C143.394 133.272 143.462 133.366 143.521 133.459C143.589 133.56 143.648 133.679 143.707 133.806C143.758 133.917 143.801 134.035 143.835 134.154C143.911 134.4 143.953 134.654 143.97 134.934C143.987 135.146 143.987 135.375 143.97 135.646C143.979 135.629 143.987 135.612 143.996 135.595C144.089 135.4 144.208 135.205 144.352 135.01C144.504 134.815 144.674 134.637 144.869 134.476C145.064 134.306 145.276 134.162 145.505 134.044C145.717 133.933 145.928 133.849 146.14 133.781V133.764C146.14 133.764 146.081 133.722 146.064 133.705C145.945 133.594 145.844 133.493 145.767 133.391C145.674 133.272 145.598 133.154 145.547 133.035C145.496 132.925 145.445 132.798 145.403 132.679C145.361 132.552 145.335 132.425 145.31 132.306C145.267 132.052 145.25 131.789 145.267 131.534C145.267 131.416 145.284 131.306 145.31 131.195" fill="#FFFDF2"/>
<path d="M123.972 132.153V132.179C124.015 132.255 124.032 132.331 124.049 132.408V132.433C124.066 132.475 124.074 132.526 124.083 132.569C124.091 132.619 124.099 132.662 124.108 132.713C124.125 132.814 124.125 132.908 124.125 133.001C124.125 133.103 124.125 133.204 124.108 133.306C124.099 133.408 124.083 133.493 124.066 133.577C124.04 133.679 124.015 133.764 123.972 133.849C123.955 133.891 123.93 133.942 123.905 133.976C123.896 133.993 123.879 134.01 123.871 134.035C123.888 134.035 123.905 134.035 123.921 134.035H123.998C124.04 134.018 124.091 134.018 124.133 134.018C124.218 134.018 124.294 134.018 124.371 134.027C124.456 134.035 124.54 134.052 124.625 134.078C124.701 134.103 124.786 134.128 124.854 134.162C125.015 134.23 125.159 134.315 125.312 134.425C125.422 134.51 125.541 134.603 125.676 134.73C125.676 134.722 125.668 134.705 125.659 134.696C125.6 134.569 125.549 134.425 125.515 134.264C125.481 134.103 125.464 133.942 125.464 133.772C125.464 133.603 125.481 133.433 125.515 133.264C125.549 133.111 125.592 132.959 125.651 132.823H125.642C125.642 132.823 125.6 132.823 125.583 132.823C125.473 132.84 125.38 132.84 125.295 132.84C125.193 132.84 125.108 132.823 125.015 132.806C124.93 132.789 124.854 132.755 124.769 132.721C124.693 132.687 124.608 132.653 124.54 132.611C124.388 132.526 124.252 132.424 124.125 132.306C124.066 132.255 124.015 132.196 123.964 132.136" fill="#FFFDF2"/>
<path d="M82.7217 40.1231C83.6119 30.0521 85.3836 10.2914 86.2653 0.3221C86.2907 0.0677799 86.0025 -0.0932893 85.799 0.0508252L64.665 15.0218C64.5294 15.115 64.504 15.3015 64.5972 15.4372L82.1877 40.2588C82.3487 40.4792 82.6963 40.3859 82.7217 40.1147V40.1231ZM71.5995 16.9461L80.3651 10.7407C80.0005 14.8522 79.263 23.1346 78.8985 27.2461L71.608 16.9546L71.5995 16.9461Z" fill="#FFBF1D"/>
<path d="M67.4432 14.8294L65.2574 16.3782L65.4878 16.7033L67.6736 15.1545L67.4432 14.8294Z" fill="#613802"/>
<path d="M70.9329 19.7518L68.7472 21.3005L68.9775 21.6256L71.1633 20.0769L70.9329 19.7518Z" fill="#613802"/>
<path d="M74.4144 24.6654L72.2286 26.2141L72.459 26.5392L74.6447 24.9905L74.4144 24.6654Z" fill="#613802"/>
<path d="M77.8958 29.5792L75.7101 31.1279L75.9404 31.453L78.1262 29.9043L77.8958 29.5792Z" fill="#613802"/>
<path d="M81.3787 34.4976L79.193 36.0464L79.4233 36.3715L81.6091 34.8227L81.3787 34.4976Z" fill="#613802"/>
<path d="M67.3063 16.2294L65.8745 17.2439L66.1049 17.569L67.5367 16.5545L67.3063 16.2294Z" fill="#613802"/>
<path d="M68.053 17.2902L66.6212 18.3047L66.8516 18.6298L68.2834 17.6153L68.053 17.2902Z" fill="#613802"/>
<path d="M68.8064 18.3458L67.3746 19.3604L67.605 19.6854L69.0368 18.6709L68.8064 18.3458Z" fill="#613802"/>
<path d="M69.5531 19.4064L68.1213 20.4209L68.3517 20.746L69.7835 19.7315L69.5531 19.4064Z" fill="#613802"/>
<path d="M70.4693 21.2855L69.3142 22.104L69.5446 22.4291L70.6997 21.6106L70.4693 21.2855Z" fill="#613802"/>
<path d="M71.216 22.3461L70.0609 23.1646L70.2913 23.4896L71.4464 22.6712L71.216 22.3461Z" fill="#613802"/>
<path d="M71.9695 23.4017L70.8143 24.2202L71.0447 24.5453L72.1998 23.7268L71.9695 23.4017Z" fill="#613802"/>
<path d="M72.7196 24.4557L71.5645 25.2742L71.7948 25.5993L72.9499 24.7808L72.7196 24.4557Z" fill="#613802"/>
<path d="M74.2339 26.025L72.8021 27.0396L73.0325 27.3646L74.4643 26.3501L74.2339 26.025Z" fill="#613802"/>
<path d="M74.9875 27.0807L73.5557 28.0952L73.786 28.4203L75.2178 27.4058L74.9875 27.0807Z" fill="#613802"/>
<path d="M75.7494 28.1364L74.3176 29.1509L74.548 29.476L75.9798 28.4614L75.7494 28.1364Z" fill="#613802"/>
<path d="M76.496 29.1971L75.0642 30.2117L75.2946 30.5368L76.7264 29.5222L76.496 29.1971Z" fill="#613802"/>
<path d="M77.7156 30.9127L76.2838 31.9272L76.5142 32.2523L77.946 31.2378L77.7156 30.9127Z" fill="#613802"/>
<path d="M78.4622 31.9818L77.0304 32.9963L77.2607 33.3214L78.6926 32.3069L78.4622 31.9818Z" fill="#613802"/>
<path d="M79.2157 33.0375L77.7839 34.052L78.0143 34.3771L79.4461 33.3626L79.2157 33.0375Z" fill="#613802"/>
<path d="M79.9623 34.098L78.5305 35.1125L78.7609 35.4376L80.1927 34.4231L79.9623 34.098Z" fill="#613802"/>
<path d="M67.7338 14.6574L68.2594 14.2844L68.1152 14.0809L68.3017 13.9453C68.4204 14.0979 68.5052 14.1572 68.6747 14.0725L68.8189 14.2759L67.9203 14.9117L67.7338 14.6489V14.6574Z" fill="#613802"/>
<path d="M71.0229 19.2945C71.2773 19.0402 71.7181 19.4301 71.9809 19.3538C72.1674 19.2097 71.8961 18.9893 71.752 19.1673L71.5825 18.93C72.3963 18.3874 72.7862 20.1931 71.4892 19.4895L71.7774 19.8964L71.557 20.049L71.0229 19.2945Z" fill="#613802"/>
<path d="M74.8377 24.0079L75.0158 24.2537C74.7021 24.5589 75.4312 24.6776 75.1429 24.2707L75.2955 24.1605C75.5498 24.525 75.6685 23.9316 75.3379 24.0503L75.1684 23.8044C75.6855 23.4229 76.1941 24.6437 75.4651 24.508C75.3888 25.3388 74.1935 24.4317 74.8462 23.9994L74.8377 24.0079Z" fill="#613802"/>
<path d="M78.2286 29.4673L78.4151 29.3317L78.1184 28.9163L78.3388 28.7637L79.1357 28.8315L79.3137 29.0858L78.8051 29.4503L78.8814 29.5605L78.6779 29.7047L78.6016 29.5944L78.4151 29.7301L78.2371 29.4758L78.2286 29.4673ZM78.4745 28.9756L78.627 29.196L78.8898 29.0095L78.4745 28.9756Z" fill="#613802"/>
<path d="M81.6789 33.8244L81.8909 34.0703C81.7891 34.1974 81.9672 34.4009 82.1028 34.2907C82.2384 34.2144 82.1621 34.0109 82.018 34.0109L81.8654 33.7481L82.4249 33.4854L82.8318 34.0618L82.6114 34.2144L82.3317 33.8244L82.1876 33.8923C82.6199 34.0957 82.4334 34.723 81.9672 34.6298C81.6789 34.5535 81.4161 34.0872 81.6704 33.8329L81.6789 33.8244Z" fill="#613802"/>
<g style="mix-blend-mode:screen" opacity="0.19">
<path d="M84.5444 9.60469C84.307 12.3513 82.9421 12.2411 83.1456 9.49449C83.383 6.74783 84.7478 6.85804 84.5444 9.60469Z" fill="white"/>
</g>
<g style="mix-blend-mode:screen" opacity="0.19">
<path d="M84.0188 13.8267C83.8662 15.5646 82.7641 15.4798 82.8913 13.7335C83.0439 11.9956 84.1459 12.0804 84.0188 13.8267Z" fill="white"/>
</g>
<g style="mix-blend-mode:multiply" opacity="0.09">
<path d="M78.8815 27.2293C79.246 23.1263 79.9835 14.8439 80.348 10.7324C80.348 10.902 80.4159 21.6682 78.8815 27.2293Z" fill="#231F20"/>
</g>
<path d="M105.051 30.5862C104.856 30.9931 104.475 31.3152 104 31.4085C102.186 31.773 89.4612 34.3501 87.9607 34.6468L82.4081 10.3423C86.8248 8.48581 93.6066 6.61233 98.71 5.94262C99.5662 5.81546 100.38 6.39192 100.55 7.23965C102.084 14.7082 103.627 22.1682 105.161 29.6367C105.229 29.9674 105.178 30.298 105.051 30.5777V30.5862Z" fill="#F26F37"/>
<path d="M105.017 34.2569L89.9612 37.5884C89.7324 37.6393 89.5119 37.6647 89.2915 37.6647C86.9772 37.5884 86.5873 35.6217 87.9521 34.6468C93.3013 33.5702 98.6505 32.4851 103.991 31.4085C104.466 31.3152 104.847 30.9931 105.042 30.5862C105.119 30.9083 105.466 32.3156 105.534 32.6038C105.746 33.2735 105.856 34.028 105.008 34.2569H105.017Z" fill="#FFCFC0"/>
<path d="M89.2916 37.6647V37.7071C87.9437 37.8851 86.2652 37.8427 85.7141 36.4524C84.9766 34.579 84.273 32.6122 83.5948 30.5607C81.6959 24.8046 80.4158 19.3706 79.5596 14.4199C79.4748 13.9112 79.5342 13.3856 79.7291 12.9109C80.0598 11.7919 81.7637 10.4525 82.408 10.3423L87.9606 34.6468C86.5958 35.6217 86.9857 37.5884 89.3 37.6647H89.2916Z" fill="#4D0000"/>
<path d="M99.1168 15.5558L87.1638 18.1584C86.7569 18.2431 86.3585 17.9973 86.2567 17.5989L85.5446 14.7759C85.4514 14.4114 85.6379 14.0299 85.9855 13.8858C89.1221 12.4955 93.4625 11.0629 96.8958 10.2999C98.5065 9.99471 99.0066 11.3765 99.227 12.682C99.3881 13.3348 99.5492 13.9791 99.7103 14.6318C99.812 15.0472 99.5492 15.4711 99.1253 15.5643L99.1168 15.5558Z" fill="#4D0000"/>
<path d="M105.543 32.6039C105.161 32.8751 104.703 33.1125 104.212 33.2058C102.915 33.4431 92.9199 35.5709 92.8181 35.5964C92.7079 35.6218 92.5977 35.554 92.5808 35.4438C92.5553 35.3336 92.6232 35.2234 92.7334 35.2064C92.8351 35.181 102.83 33.0532 104.135 32.8158C104.619 32.731 105.068 32.4682 105.441 32.1885L105.543 32.6208V32.6039Z" fill="#4D0000"/>
</g>
<defs>
<clipPath id="clip0_5398_74567">
<rect width="227.65" height="183" fill="white"/>
</clipPath>
</defs>
</svg>
